<?xml version="1.0" encoding="UTF-8"?>
<svg id="Layer_2" data-name="Layer 2" xmlns="http://www.w3.org/2000/svg" viewBox="0 0 108.11 108.11">
  <defs>
    <style>
      .cls-1 {
        fill: #fff;
        fill-rule: evenodd;
      }

      .cls-2 {
        fill: #1d4ed8;
      }
    </style>
  </defs>
  <g id="Layer_1-2" data-name="Layer 1">
    <rect class="cls-2" x="0" y="0" width="108.11" height="108.11" rx="54.05" ry="54.05"/>
    <g>
      <path class="cls-1" d="M42.74,91.91c-3.42,0-5.9-5.59-7.46-16.89-.41-3.42-.51-6.94-.41-10.47.1-3.52,0-5.7-.21-6.83-.2-1.67-1.03-3.94-2.28-6.84-1.34-2.91-2.28-5.7-3.11-8.5-.73-2.8-.83-5.6-.31-8.4,1.14-4.56,3.42-8.04,7.05-9.29,2.23-.83,5.04-.84,8.36.07.8,2.49,3.39,11.12,2.6,16.37-.92,6.17-9.72,17.95-4.23,50.78Z"/>
      <path class="cls-1" d="M64.35,91.76c-.3-.09-.58-.21-.88-.36-.51-.52-2.35-2.15-2.56-3.08-.31-.94-.52-1.87-.62-2.7-.1-.93-.21-2.07-.21-3.53,0-1.55,0-2.79.11-3.62.1-.93.2-2.17.31-3.73.2-2.7.2-4.46.1-5.49-.52-6.22-1.43-11.7-6-11.7s-6.82,4.19-7.34,10.41c-.11.93.28,5.03.49,7.83.11,1.55.21,2.8.21,3.73.1.83.1,2.07.21,3.62,0,1.46,0,2.6-.21,3.53-.1.83-.31,1.76-.62,2.7-.32.93-1.19,1.28-1.81,1.79-.34.21-1.1.46-1.8.61-.39-2.65-5.94-42.1,10.32-42.1s10.71,39.35,10.3,42.09Z"/>
      <path class="cls-1" d="M78.91,42.38c-.72,2.8-1.76,5.59-3.11,8.5-1.24,2.9-2.07,5.17-2.27,6.84-.21.82-.31,3.1-.21,6.83.1,3.63,0,7.16-.42,10.47-1.55,11.3-4.04,16.89-7.46,16.89-.09,0-.18,0-.26-.01.15-.73,6.14-30.61-2.81-51.75-1.56-3.68.95-12.42,1.92-15.52,3.12-.78,5.78-.73,7.99.06,3.52,1.25,5.81,4.73,6.74,9.29.62,2.8.62,5.6-.11,8.4Z"/>
    </g>
  </g>
</svg>