<?xml version="1.0" encoding="UTF-8"?>
<svg id="Layer_2" data-name="Layer 2" xmlns="http://www.w3.org/2000/svg" viewBox="0 0 108.11 108.11">
  <defs>
    <style>
      .cls-1 {
        fill: none;
        stroke: #1d4ed8;
        stroke-miterlimit: 10;
        stroke-width: 3px;
      }

      .cls-1, .cls-2 {
        fill-rule: evenodd;
      }

      .cls-2 {
        fill: #fff;
      }

      .cls-3 {
        fill: #1d4ed8;
      }
    </style>
  </defs>
  <g id="Layer_1-2" data-name="Layer 1">
    <rect class="cls-3" x="0" y="0" width="108.11" height="108.11" rx="54.05" ry="54.05"/>
    <path class="cls-2" d="M78.75,33.15c.61,2.77.61,5.54-.1,8.31-.72,2.77-1.74,5.53-3.08,8.41-1.23,2.87-2.05,5.12-2.25,6.77-.21.82-.31,3.07-.21,6.77.1,3.59,0,7.08-.41,10.36-1.54,11.18-4,16.71-7.38,16.71-.83,0-1.34-.2-1.95-.51-.51-.51-2.33-2.12-2.53-3.04-.3-.93-.51-1.85-.61-2.67-.1-.92-.21-2.05-.21-3.49,0-1.53,0-2.77.11-3.59.1-.92.21-2.15.31-3.69.2-2.67.2-4.41.1-5.43-.52-6.15-1.42-11.57-5.94-11.57-4.71,0-6.75,4.14-7.27,10.3-.1.92.28,4.98.49,7.75.1,1.54.21,2.77.21,3.69.1.82.1,2.05.21,3.59,0,1.44,0,2.57-.21,3.49-.1.82-.31,1.74-.61,2.67-.31.92-1.17,1.27-1.79,1.78-.51.31-2.03.74-2.75.74-3.38,0-5.85-5.54-7.38-16.71-.41-3.39-.51-6.87-.41-10.36.1-3.49,0-5.64-.21-6.77-.2-1.64-1.02-3.9-2.26-6.77-1.33-2.87-2.26-5.64-3.08-8.41-.72-2.77-.82-5.54-.31-8.31,1.13-4.52,3.38-7.96,6.98-9.19,2.46-.92,5.64-.82,9.44.41,3.79,1.23,6.66,2.32,8.51,2.32,1.74,0,4.51-1.09,8.41-2.32,3.79-1.23,6.97-1.33,9.53-.41,3.49,1.23,5.74,4.68,6.67,9.19h0Z"/>
    <path class="cls-1" d="M29.18,54.08h9.61c.5,0,.94-.33,1.07-.82l3.26-11.75c.13-.48.57-.82,1.07-.82h19.46c.52,0,.96.35,1.08.86l2.78,11.67c.12.5.57.86,1.08.86h9.57"/>
  </g>
</svg>