<?xml version="1.0" encoding="UTF-8"?>
<svg id="Layer_2" data-name="Layer 2" xmlns="http://www.w3.org/2000/svg" viewBox="0 0 108.11 108.11">
  <defs>
    <style>
      .cls-1 {
        fill: #fff;
        fill-rule: evenodd;
      }

      .cls-2 {
        fill: #1d4ed8;
      }
    </style>
  </defs>
  <g id="Layer_1-2" data-name="Layer 1">
    <rect class="cls-2" x="0" y="0" width="108.11" height="108.11" rx="54.05" ry="54.05"/>
    <path class="cls-1" d="M80.16,41.8c-.76,2.94-1.85,5.88-3.26,8.93-1.31,3.05-2.18,5.44-2.39,7.18-.22.87-.33,3.27-.22,7.18.11,3.81,0,7.51-.44,11-1.63,11.86-4.24,17.74-7.83,17.74-.88,0-1.42-.22-2.08-.55-.54-.54-2.46-2.25-2.68-3.23-.33-.98-.55-1.96-.66-2.83-.1-.98-.22-2.18-.22-3.71,0-1.62,0-2.93.12-3.8.1-.98.21-2.29.32-3.92.22-2.83.22-4.68.11-5.77-.55-6.53-1.51-12.28-6.3-12.28s-7.16,4.4-7.71,10.93c-.11.98.3,5.28.52,8.22.11,1.64.21,2.94.21,3.92.11.87.11,2.18.22,3.81,0,1.52,0,2.72-.22,3.7-.1.87-.32,1.85-.65,2.83-.33.98-1.24,1.35-1.9,1.89-.54.33-2.16.79-2.92.79-3.59,0-6.21-5.88-7.84-17.74-.43-3.6-.54-7.3-.43-11,.11-3.7,0-5.98-.22-7.18-.21-1.74-1.09-4.13-2.4-7.18-1.41-3.05-2.39-5.99-3.26-8.93-.76-2.94-.87-5.88-.33-8.81,1.2-4.79,3.59-8.45,7.41-9.76,2.61-.98,5.98-.87,10.01.44,0,0,1.12,8.69,8.98,8.69s8.98-8.69,8.98-8.69c4.02-1.31,7.4-1.42,10.12-.44,3.7,1.31,6.09,4.96,7.07,9.75.65,2.94.65,5.88-.11,8.82Z"/>
    <path class="cls-1" d="M63.03,14.44s-1.11,8.69-8.98,8.69-8.97-8.69-8.97-8.69c4.02,1.3,7.06,2.46,9.03,2.46,1.85,0,4.79-1.15,8.92-2.46Z"/>
  </g>
</svg>