<?xml version="1.0" encoding="UTF-8"?>
<svg id="Layer_2" data-name="Layer 2" xmlns="http://www.w3.org/2000/svg" viewBox="0 0 108.11 108.11">
  <defs>
    <style>
      .cls-1 {
        fill: #fff;
        fill-rule: evenodd;
      }

      .cls-2 {
        fill: #1d4ed8;
      }
    </style>
  </defs>
  <g id="Layer_1-2" data-name="Layer 1">
    <rect class="cls-2" x="0" y="0" width="108.11" height="108.11" rx="54.05" ry="54.05"/>
    <path class="cls-1" d="M88.17,31.52c-.03,2.59-.6,5.06-1.82,7.38-1.21,2.32-2.7,4.57-4.49,6.85-1.69,2.3-2.89,4.14-3.41,5.56-.35.69-.91,2.67-1.59,5.98-.65,3.22-1.47,6.3-2.52,9.14-3.69,9.63-7.03,14.05-10.04,13.35-.73-.17-1.15-.46-1.63-.86-.35-.56-1.63-2.37-1.62-3.24-.08-.89-.07-1.75,0-2.5.1-.84.24-1.87.54-3.15.32-1.37.57-2.46.84-3.17.28-.8.63-1.87,1.04-3.22.73-2.33,1.1-3.89,1.22-4.82.81-5.59,1.14-10.6-2.88-11.54-4.2-.98-6.88,2.29-8.61,7.66-.28.8-.78,4.49-1.18,7-.23,1.39-.39,2.51-.58,3.33-.08.75-.34,1.85-.56,3.24-.3,1.28-.53,2.29-.91,3.06-.26.71-.64,1.49-1.1,2.25-.47.76-1.31.89-1.96,1.21-.52.17-1.97.24-2.61.09-3.01-.7-4.06-6.14-3.1-16.42.34-3.1.97-6.23,1.79-9.31.81-3.08,1.17-5.02,1.22-6.07.16-1.51-.1-3.68-.6-6.5-.59-2.84-.84-5.49-.99-8.13-.07-2.62.42-5.1,1.45-7.46,1.94-3.79,4.67-6.39,8.12-6.74,2.38-.31,5.19.44,8.32,2.33,3.12,1.88,5.45,3.45,7.09,3.83,1.55.36,4.24-.03,7.97-.32,3.64-.31,6.49.26,8.58,1.61,2.85,1.82,4.14,5.36,4.03,9.57h0Z"/>
    <path class="cls-1" d="M12.15,75.59s12.09,26.55,40.2,26.55,45.46-26.55,45.46-26.55c0,0-10.19-7.45-17.48,0-7.29,7.45-8.25,11.65-14.35,11.57-9.9-.12-6.35-14.53-10.48-14.72-3.92-.19,0,15.06-10.93,14.78-6.76-.18-13.13-10.57-14.89-12.34-2.05-2.06-11.34-5.77-17.53.72Z"/>
  </g>
</svg>