<?xml version="1.0" encoding="UTF-8"?>
<svg id="Layer_2" data-name="Layer 2" xmlns="http://www.w3.org/2000/svg" viewBox="0 0 108.11 108.11">
  <defs>
    <style>
      .cls-1 {
        fill: #fff;
      }

      .cls-2 {
        fill: #1d4ed8;
      }
    </style>
  </defs>
  <g id="Layer_1-2" data-name="Layer 1">
    <rect class="cls-2" x="0" y="0" width="108.11" height="108.11" rx="54.05" ry="54.05"/>
    <g>
      <path class="cls-1" d="M40.69,20.35c4.79-1.84,10.03-2.13,15.16-2.28,4.14-.12,8.31-.17,12.39.55s8.09,2.26,11.21,4.99c4.28,3.75,6.45,9.35,7.79,14.88,1.41,5.87,2.01,12.25-.36,17.8-1.29,3.02-3.38,5.62-5.45,8.18-1.02,1.26-2.08,2.56-3.5,3.35-1.57.88-3.45,1.05-5.21,1.3-2.14.3-4.28.57-6.43.7-.85.05-1.74,0-2.34-.56-.88-.82-.69-2.22-.86-3.4-.35-2.48-2.81-4.47-5.31-4.31-2.96.2-3.27,2.78-6.69,1.73-1.1-.33-3.57-1.62-4.61-2.1-1.48-.68-3.32-.04-4.39,1.18s-1.5,2.89-1.61,4.51c-.13,1.9.06,4-1.09,5.52-.91,1.2-2.44,1.73-3.89,2.15-3.15.9-10.24.42-10.52.31-.66-.25-.8-1.1-.84-1.8-.19-3.84.04-6.11.66-9.91.22-1.32.48-2.7-.08-3.97-.41-.93-1.37-1.49-2.38-1.5-.74-.01-2.06-.42-2.47-.93-.23-.28-.31-.72-.15-1.06,1.71-3.77,4.02-7.17,5.99-10.8.92-1.7,1.8-3.43,2.14-5.35.41-2.24.35-4.56.96-6.77.78-2.8,2.59-5.15,4.56-7.23,2.12-2.24,4.41-4.05,7.32-5.16Z"/>
      <path class="cls-1" d="M44.61,68.84c.42,1.36.71,2.76.88,4.18.12.98.17,2.02-.24,2.92-.7,1.56-2.52,2.28-4.2,2.58-3.68.65-7.45.05-11.18.25-1.17.06-3.8-.08-4.87.42s-.09,2.22-.41,3.35.11,2.5,1.14,3.06c.46.25.99.33,1.51.4,7.63,1,14.89-.11,22.56-.67.82-.06,1.66-.12,2.42-.43,1.43-.58,2.42-1.96,2.86-3.43s.42-3.05.33-4.59c-.05-.83-.12-1.7.15-2.49.22-.63.64-1.16,1.05-1.69.68-.86,1.36-1.72,2.04-2.58.44-.55.89-1.13,1.08-1.81.12-.42.12-.9-.12-1.26-.17-.26-.44-.43-.73-.53-1.48-.5-2.9.76-4.34,1.36-1.05.44-2.25.52-3.35.24-2.01-.52-3.87-2.22-5.87-1.66-.27.08-.57.21-.69.48-.06.14-.09.3-.1.45-.03.27-.05.54-.03.81s.1.53.13.8"/>
      <path class="cls-2" d="M34.44,40.5c-.08,1.05.04,2.11,0,3.16-.01.3-.03.61-.19.86-.26.42-.79.56-1.22.81-1.1.64-1.47,2.12-1.21,3.36.12.56.35,1.1.73,1.52.62.69,1.6.99,2.53.94,2.41-.13,4.62-1.98,5.12-4.33.17-.82.21-1.67.25-2.51.06-1.12.12-2.31-.43-3.29-.69-1.22-2.16-1.83-3.49-1.98-.46-.05-1.43-.14-1.79.22-.13.13-.17.32-.21.5-.04.24-.07.49-.09.73Z"/>
      <path class="cls-2" d="M55.46,58.65l2.44-5.34c.04-.09-.01-.2-.11-.22l-4.59-.83c-.43-.08-.61-.6-.31-.92l7.6-8.27c.43-.47,1.18.03.91.61l-2.44,5.34c-.04.09.01.2.11.22l4.59.83c.43.08.61.6.31.92l-7.6,8.27c-.43.47-1.18-.03-.91-.61Z"/>
    </g>
  </g>
</svg>