<?xml version="1.0" encoding="UTF-8"?>
<svg id="Layer_2" data-name="Layer 2" xmlns="http://www.w3.org/2000/svg" viewBox="0 0 108.11 108.11">
  <defs>
    <style>
      .cls-1 {
        fill: #fff;
        fill-rule: evenodd;
      }

      .cls-2 {
        fill: #1d4ed8;
      }
    </style>
  </defs>
  <g id="Layer_1-2" data-name="Layer 1">
    <rect class="cls-2" x="0" y="0" width="108.11" height="108.11" rx="54.05" ry="54.05"/>
    <path class="cls-1" d="M77.8,44.27c-.64,2.51-1.58,5.02-2.79,7.63-1.11,2.6-1.86,4.65-2.04,6.14-.19.74-.28,2.79-.19,6.14.1,3.26,0,6.42-.37,9.4-1.4,10.14-3.63,15.17-6.7,15.17-.75,0-1.21-.19-1.77-.47-.46-.46-2.11-1.93-2.3-2.76-.28-.84-.46-1.68-.56-2.42-.09-.84-.19-1.86-.19-3.17,0-1.39,0-2.51.1-3.26.09-.83.19-1.95.28-3.34.18-2.42.18-4.01.09-4.94-.47-5.58-1.29-10.5-5.38-10.5s-6.13,3.76-6.6,9.35c-.09.83.26,4.51.44,7.03.1,1.39.19,2.51.19,3.35.09.74.09,1.86.19,3.25,0,1.31,0,2.33-.19,3.17-.09.74-.28,1.58-.56,2.42-.28.84-1.06,1.15-1.62,1.61-.47.29-1.85.68-2.5.68-3.07,0-5.31-5.03-6.7-15.17-.37-3.07-.47-6.24-.37-9.4.09-3.16,0-5.12-.19-6.14-.18-1.49-.93-3.54-2.05-6.14-1.21-2.61-2.05-5.12-2.79-7.63-.65-2.52-.75-5.03-.28-7.54.04-.14.07-.28.11-.42.8.93,1.38,2.05,1.65,3.29l1.28,5.75c.11.47.79.47.9,0l1.27-5.75c.65-2.89,2.9-5.14,5.79-5.78l5.75-1.28c.48-.11.48-.79,0-.9l-5.75-1.28c-1.18-.26-2.24-.79-3.15-1.53-.26-.21-.51-.44-.73-.69,2.11-.56,4.72-.37,7.77.62,3.45,1.12,6.05,2.11,7.72,2.11s4.1-.99,7.64-2.11c3.44-1.12,6.32-1.21,8.65-.37,3.16,1.12,5.21,4.24,6.05,8.34.56,2.51.56,5.02-.1,7.54Z"/>
    <path class="cls-1" d="M40.07,28.14c-.27.07-.54.15-.79.25-3.15,1.08-5.17,4.03-6.22,7.92-.3-.36-.65-.69-1.02-.99-.89-.73-1.95-1.25-3.11-1.5l-5.74-1.28c-.49-.11-.49-.79,0-.9l5.74-1.28c2.89-.64,5.15-2.9,5.79-5.78l1.28-5.75c.1-.49.79-.49.89,0l1.28,5.75c.3,1.37.96,2.58,1.9,3.56Z"/>
  </g>
</svg>