<?xml version="1.0" encoding="UTF-8"?>
<svg id="Layer_2" data-name="Layer 2" xmlns="http://www.w3.org/2000/svg" viewBox="0 0 108.11 108.11">
  <defs>
    <style>
      .cls-1 {
        fill: #fff;
      }

      .cls-2 {
        fill: #1d4ed8;
      }
    </style>
  </defs>
  <g id="Layer_1-2" data-name="Layer 1">
    <rect class="cls-2" x="0" y="0" width="108.11" height="108.11" rx="54.05" ry="54.05"/>
    <path class="cls-1" d="M43.73,49.22c-1.09,0-2.05,1.44-2.05,3.09s.96,3.1,2.05,3.1,2.05-1.45,2.05-3.1-.96-3.09-2.05-3.09ZM43.73,49.22c-1.09,0-2.05,1.44-2.05,3.09s.96,3.1,2.05,3.1,2.05-1.45,2.05-3.1-.96-3.09-2.05-3.09ZM43.73,49.22c-1.09,0-2.05,1.44-2.05,3.09s.96,3.1,2.05,3.1,2.05-1.45,2.05-3.1-.96-3.09-2.05-3.09ZM65.68,49.22c-1.09,0-2.05,1.44-2.05,3.09s.96,3.1,2.05,3.1,2.05-1.45,2.05-3.1-.96-3.09-2.05-3.09ZM65.68,49.22c-1.09,0-2.05,1.44-2.05,3.09s.96,3.1,2.05,3.1,2.05-1.45,2.05-3.1-.96-3.09-2.05-3.09ZM43.73,49.22c-1.09,0-2.05,1.44-2.05,3.09s.96,3.1,2.05,3.1,2.05-1.45,2.05-3.1-.96-3.09-2.05-3.09ZM54.53,19.87c-18.85,0-34.18,15.34-34.18,34.18s15.33,34.18,34.18,34.18,34.18-15.33,34.18-34.18-15.33-34.18-34.18-34.18ZM32.59,46.51c-1.07-.01-1.92-.87-1.92-1.94.01-1.05.87-1.91,1.93-1.91h.03c2.49,0,6.24-2.55,7.17-4.89.39-.99,1.51-1.47,2.5-1.08.98.39,1.47,1.51,1.08,2.5-1.5,3.77-6.72,7.32-10.76,7.32h-.03ZM37.83,52.31c0-3.83,2.65-6.94,5.9-6.94s5.9,3.11,5.9,6.94-2.65,6.95-5.9,6.95-5.9-3.12-5.9-6.95ZM67.59,71.64c-.82,1.31-2.45,2.05-4.17,1.87-1.09-.11-2.06-.51-2.91-.86-.47-.2-.92-.38-1.31-.49-2.5-.69-4.83-.77-6.94-.23-.47.12-1.04.37-1.64.63-1.18.5-2.59,1.1-4.08,1.1-.38,0-.77-.04-1.16-.13-.84-.2-1.62-.65-2.24-1.29-.88-.9-1.38-2.12-1.37-3.34.04-2.59,2.02-4.7,3.75-6.25,2.34-2.1,5.59-3.2,9.42-3.2,2.98,0,7.18.68,10.25,3.96,1.69,1.8,4.24,5.26,2.4,8.23ZM65.68,59.26c-3.25,0-5.9-3.12-5.9-6.95s2.65-6.94,5.9-6.94,5.9,3.11,5.9,6.94-2.64,6.95-5.9,6.95ZM76.34,46.51h-.04c-4.04,0-9.25-3.55-10.75-7.32-.39-.99.09-2.11,1.08-2.5.98-.39,2.1.09,2.5,1.08.92,2.34,4.67,4.89,7.17,4.89h.03c1.06,0,1.92.86,1.92,1.91.01,1.07-.85,1.93-1.91,1.94ZM65.68,49.22c-1.09,0-2.05,1.44-2.05,3.09s.96,3.1,2.05,3.1,2.05-1.45,2.05-3.1-.96-3.09-2.05-3.09ZM54.94,63.3c-2,0-4.8.38-6.85,2.21-.6.55-2.45,2.2-2.47,3.44,0,.2.11.43.28.6.11.12.24.2.37.23.67.16,1.82-.33,2.84-.77.71-.3,1.44-.61,2.2-.81,2.76-.71,5.76-.62,8.91.25.63.17,1.2.41,1.75.64.68.27,1.31.54,1.84.59.25.03.45-.04.52-.09.21-.4-.25-1.74-1.95-3.55-2.13-2.27-5.22-2.74-7.44-2.74ZM45.78,52.31c0-1.65-.96-3.09-2.05-3.09s-2.05,1.44-2.05,3.09.96,3.1,2.05,3.1,2.05-1.45,2.05-3.1ZM43.73,49.22c-1.09,0-2.05,1.44-2.05,3.09s.96,3.1,2.05,3.1,2.05-1.45,2.05-3.1-.96-3.09-2.05-3.09ZM43.73,49.22c-1.09,0-2.05,1.44-2.05,3.09s.96,3.1,2.05,3.1,2.05-1.45,2.05-3.1-.96-3.09-2.05-3.09Z"/>
  </g>
</svg>