<?xml version="1.0" encoding="UTF-8"?>
<svg id="Layer_2" data-name="Layer 2" xmlns="http://www.w3.org/2000/svg" viewBox="0 0 108.11 108.11">
  <defs>
    <style>
      .cls-1 {
        fill: #fff;
        fill-rule: evenodd;
      }

      .cls-2 {
        fill: #1d4ed8;
      }
    </style>
  </defs>
  <g id="Layer_1-2" data-name="Layer 1">
    <rect class="cls-2" x="0" y="0" width="108.11" height="108.11" rx="54.05" ry="54.05"/>
    <g>
      <path class="cls-1" d="M47.99,77.69c0-.92-.1-2.16-.2-3.7-.07-.95-.16-2.05-.25-3.12-4.02-1.58-7.42-2.65-12.51-2.19.06,1.53.18,3.05.36,4.55,1.55,11.22,4.02,16.78,7.42,16.78.72,0,2.25-.43,2.77-.74.62-.51,1.49-.86,1.8-1.79s.51-1.86.61-2.68c.21-.92.21-2.06.21-3.5-.1-1.54-.1-2.78-.21-3.61ZM37.37,76.87c0-.97.78-1.76,1.75-1.76s1.76.79,1.76,1.76-.79,1.75-1.76,1.75-1.75-.78-1.75-1.75ZM40.88,84.58c-1.38,0-2.5-1.12-2.5-2.5s1.12-2.5,2.5-2.5,2.5,1.12,2.5,2.5-1.12,2.5-2.5,2.5ZM40.88,73.38c0-1.38,1.12-2.5,2.5-2.5s2.5,1.12,2.5,2.5-1.12,2.5-2.5,2.5-2.5-1.12-2.5-2.5ZM45.37,87.02c-.97,0-1.75-.79-1.75-1.76s.78-1.75,1.75-1.75,1.76.78,1.76,1.75-.79,1.76-1.76,1.76Z"/>
      <path class="cls-1" d="M63.86,70.33c-1.11.28-2.21.56-3.28.81-.03.55-.07,1.15-.12,1.8-.1,1.55-.21,2.78-.31,3.71-.11.82-.11,2.06-.11,3.6,0,1.45.11,2.58.21,3.51.11.82.31,1.75.62,2.68.21.92,2.03,2.55,2.54,3.06.62.31,1.14.51,1.97.51,3.39,0,5.86-5.56,7.41-16.78.19-1.54.32-3.12.38-4.74-2.75.2-6.07,1.02-9.31,1.84ZM61.01,76.87c0-1.38,1.12-2.5,2.5-2.5s2.49,1.12,2.49,2.5-1.11,2.5-2.49,2.5-2.5-1.12-2.5-2.5ZM64.74,87.74c-.97,0-1.76-.79-1.76-1.76s.79-1.75,1.76-1.75,1.75.78,1.75,1.75-.79,1.76-1.75,1.76ZM68.29,83.83c-.97,0-1.76-.78-1.76-1.75s.79-1.76,1.76-1.76,1.75.79,1.75,1.76-.78,1.75-1.75,1.75ZM69.8,74.99c-.97,0-1.75-.79-1.75-1.76s.78-1.75,1.75-1.75,1.75.78,1.75,1.75-.78,1.76-1.75,1.76Z"/>
      <path class="cls-1" d="M78.76,40.78c-.72,2.78-1.75,5.56-3.09,8.44-1.23,2.89-2.06,5.15-2.26,6.8-.21.82-.31,3.09-.21,6.8.01.22.01.44.02.66-3.3.18-6.98,1.1-10.57,2-.73.18-1.47.37-2.22.55-.56-5.56-1.66-10.17-5.83-10.17-4.55,0-6.61,3.83-7.22,9.6-3.64-1.3-7.37-2.18-12.42-1.78.01-.29.01-.57.02-.86.11-3.5,0-5.67-.2-6.8-.21-1.65-1.03-3.91-2.27-6.8-1.34-2.88-2.27-5.66-3.09-8.44-.72-2.79-.82-5.57-.31-8.35,1.13-4.53,3.4-7.99,7.01-9.23,2.47-.93,5.66-.83,9.48.41,3.81,1.24,6.69,2.33,8.54,2.33,1.75,0,4.54-1.09,8.45-2.33,3.81-1.24,7.01-1.34,9.58-.41,3.5,1.24,5.77,4.7,6.7,9.23.61,2.78.61,5.56-.11,8.35Z"/>
    </g>
  </g>
</svg>