<?xml version="1.0" encoding="UTF-8"?>
<svg id="Layer_2" data-name="Layer 2" xmlns="http://www.w3.org/2000/svg" viewBox="0 0 108.11 108.11">
  <defs>
    <style>
      .cls-1 {
        fill-rule: evenodd;
      }

      .cls-1, .cls-2 {
        fill: #fff;
      }

      .cls-3 {
        fill: #1d4ed8;
      }
    </style>
  </defs>
  <g id="Layer_1-2" data-name="Layer 1">
    <g>
      <rect class="cls-3" x="0" y="0" width="108.11" height="108.11" rx="54.05" ry="54.05"/>
      <path class="cls-1" d="M43.75,12.9l4.56,6.92c1.74,2.64,4.99,3.86,8.04,3.02l7.99-2.2c1.46-.4,2.58,1.3,1.63,2.48l-5.17,6.47c-1.98,2.48-2.13,5.94-.39,8.59l4.56,6.92c.83,1.26-.44,2.85-1.85,2.32l-7.75-2.91c-2.96-1.11-6.31-.19-8.29,2.28l-5.17,6.47c-.94,1.18-2.84.47-2.78-1.04l.37-8.28c.14-3.16-1.77-6.06-4.73-7.17l-7.75-2.91c-1.41-.53-1.32-2.56.13-2.96l7.99-2.2c3.05-.84,5.22-3.55,5.36-6.72l.37-8.28c.07-1.51,2.03-2.05,2.86-.79Z"/>
      <rect class="cls-2" x="56.67" y="48.01" width="3.86" height="48.71" rx="1.93" ry="1.93" transform="translate(-17.12 18.17) rotate(-15.41)"/>
    </g>
  </g>
</svg>