<?xml version="1.0" encoding="UTF-8"?>
<svg id="Layer_2" data-name="Layer 2" xmlns="http://www.w3.org/2000/svg" viewBox="0 0 477.7 165.47">
  <defs>
    <style>
      .cls-1 {
        fill-rule: evenodd;
      }

      .cls-1, .cls-2 {
        fill: #fff;
      }
    </style>
  </defs>
  <g id="Layer_1-2" data-name="Layer 1">
    <g>
      <g>
        <path class="cls-1" d="M123.88,149.21c.02.21.04.41.06.64-7.86,6.34-17.08,11.08-27.16,13.69-.02-.17-.02-.34-.04-.51-.45-5.93-1.27-14.59-1.05-16.56,1.1-13.13,5.44-21.98,15.53-21.98s11.56,11.56,12.67,24.71h0Z"/>
        <path class="cls-1" d="M139.22,53.79c-3.35.15-7.03.86-11.04,2.15-8.31,2.64-14.24,4.96-17.94,4.96-3.95,0-10.07-2.32-18.17-4.96-8.12-2.62-14.89-2.84-20.15-.88-7.67,2.64-12.5,9.99-14.89,19.64-1.1,5.89-.9,11.81.65,17.74,1.74,5.91,3.72,11.81,6.57,17.94,2.64,6.14,4.38,10.94,4.81,14.46.45,2.39.65,7,.45,14.44-.22,7.45,0,14.89.86,22.11.19,1.4.39,2.75.6,4.08-36.54-3.74-65.01-34.59-65.01-72.1,0-18.65,7.03-35.64,18.61-48.49,3.54,2.83,6.1,6.83,7.13,11.43l3.4,15.3c.28,1.27,2.11,1.27,2.39,0l3.4-15.3c1.72-7.71,7.73-13.71,15.43-15.43l15.3-3.4c1.29-.28,1.29-2.11,0-2.39l-15.3-3.4c-3.14-.71-6.01-2.11-8.4-4.1,9.28-4.3,19.63-6.72,30.53-6.72,25.42,0,47.82,13.1,60.75,32.93h.02Z"/>
        <path class="cls-1" d="M47.93,27.58c-8.92,4.15-16.86,10.07-23.35,17.31-2.38-1.93-5.2-3.31-8.31-4l-15.3-3.4c-1.29-.28-1.29-2.11,0-2.39l15.3-3.4c7.71-1.72,13.71-7.73,15.43-15.43l3.4-15.3c.28-1.29,2.11-1.29,2.39,0l3.4,15.3c1.01,4.56,3.54,8.53,7.02,11.34l.02-.03Z"/>
      </g>
      <g>
        <g>
          <path class="cls-2" d="M187.64,117.06v1.82l-10.4,13.71h10.16v1.82h-12.86v-1.82l10.73-13.71h-10.49v-1.82h12.86Z"/>
          <path class="cls-2" d="M198,134.42h-2.33l7.37-17.35h2.49l7.4,17.35h-2.49l-2.25-5.46h-5.74l.62-1.82h4.37l-3.24-7.86-6.2,15.15h0Z"/>
          <path class="cls-2" d="M221.51,134.42v-17.35h2.25v7.64h10.26v-7.64h2.25v17.35h-2.25v-7.89h-10.26v7.89h-2.25Z"/>
          <path class="cls-2" d="M246.6,134.42v-17.35h2.25l10.62,13.98v-13.98h2.12v17.35h-2.25l-10.62-14.1v14.1h-2.12Z"/>
          <path class="cls-2" d="M272.5,134.42h-2.33l7.37-17.35h2.49l7.4,17.35h-2.49l-2.25-5.46h-5.74l.62-1.82h4.37l-3.24-7.86-6.2,15.15h0Z"/>
          <path class="cls-2" d="M296,134.42v-17.35h7.4c3.3,0,4.95,1.39,4.95,4.16,0,2.26-1.61,3.93-4.84,5.01l5.96,8.18h-2.96l-5.52-7.8v-1.47c3.32-.53,4.98-1.8,4.98-3.82,0-1.6-.92-2.4-2.77-2.4h-4.95v15.5h-2.25Z"/>
          <path class="cls-2" d="M330.62,117.06v1.82l-10.4,13.71h10.16v1.82h-12.86v-1.82l10.73-13.71h-10.49v-1.82h12.86,0Z"/>
          <path class="cls-2" d="M352.12,117.06v1.82h-5.46v15.53h-2.25v-15.53h-5.46v-1.82h13.17,0Z"/>
          <path class="cls-2" d="M361.01,134.42v-17.35h7.04c3.54,0,5.32,1.55,5.32,4.65,0,3.37-2.42,5.43-7.27,6.18l-.46-1.89c3.56-.53,5.34-1.92,5.34-4.19,0-1.92-1.04-2.89-3.13-2.89h-4.59v15.5h-2.25Z"/>
          <path class="cls-2" d="M382.55,134.42v-17.35h7.4c3.3,0,4.95,1.39,4.95,4.16,0,2.26-1.61,3.93-4.84,5.01l5.96,8.18h-2.96l-5.52-7.8v-1.47c3.32-.53,4.98-1.8,4.98-3.82,0-1.6-.92-2.4-2.77-2.4h-4.95v15.5h-2.25Z"/>
          <path class="cls-2" d="M405.17,134.42h-2.33l7.37-17.35h2.49l7.4,17.35h-2.49l-2.25-5.46h-5.74l.62-1.82h4.37l-3.24-7.86-6.2,15.15h0Z"/>
          <path class="cls-2" d="M433.75,125.74l-6.83-8.68h2.73l5.46,6.94,5.46-6.94h2.73l-6.82,8.68,6.82,8.68h-2.73l-5.46-6.94-5.46,6.94h-2.73l6.83-8.68Z"/>
          <path class="cls-2" d="M454.61,117.06v17.35h-2.25v-17.35h2.25Z"/>
          <path class="cls-2" d="M465.07,133.81v-2.06c1.82.65,3.79.97,5.9.97,2.99,0,4.48-1.09,4.48-3.28,0-1.86-1.1-2.79-3.3-2.79h-2.23c-3.63,0-5.45-1.58-5.45-4.73,0-3.32,2.33-4.98,6.98-4.98,2.02,0,3.9.24,5.64.73v2.06c-1.74-.65-3.62-.97-5.64-.97-3.16,0-4.73,1.05-4.73,3.15,0,1.86,1.07,2.79,3.2,2.79h2.23c3.7,0,5.55,1.58,5.55,4.73,0,3.4-2.24,5.1-6.72,5.1-2.11,0-4.08-.24-5.9-.73h-.01Z"/>
        </g>
        <g>
          <path class="cls-2" d="M222.66,99.02v-37.06h14.51c12.27,0,18.4,5.84,18.4,17.52,0,13.03-6.13,19.54-18.4,19.54h-14.51ZM237.17,93.06c7.69,0,11.53-4.53,11.53-13.58,0-7.7-3.84-11.56-11.53-11.56h-7.64v25.14h7.64Z"/>
          <path class="cls-2" d="M260.75,99.02v-27.21h5.31l.86,3.47c2.38-2.31,4.91-3.47,7.57-3.47v5.55c-2.56,0-4.85,1.06-6.87,3.19v18.48h-6.87Z"/>
          <path class="cls-2" d="M284.59,92.67v6.35h-6.87v-6.35h6.87Z"/>
          <path class="cls-2" d="M302.73,99.02v-37.06h7.13l12.57,28.12,12.31-28.12h6.87v37.06h-6.35v-25.81l-10.05,25.81h-5.86l-10.26-25.81v25.81h-6.36Z"/>
          <path class="cls-2" d="M355.59,61.96v5.44h-6.87v-5.44h6.87ZM355.59,71.81v27.21h-6.87v-27.21s6.87,0,6.87,0Z"/>
          <path class="cls-2" d="M362.07,99.02v-37.06h6.87v13.32c2.14-2.31,4.88-3.47,8.21-3.47,6.44,0,9.67,3.35,9.67,10.05v17.15h-6.87v-17.15c0-3.01-1.49-4.51-4.48-4.51-2.23,0-4.41.89-6.53,2.67v18.99h-6.87Z"/>
          <path class="cls-2" d="M392,90.55c0-5.41,3.94-8.11,11.82-8.11,1.85,0,3.7.17,5.55.52v-2.05c0-2.44-1.75-3.65-5.26-3.65-2.97,0-6.27.43-9.9,1.3v-5.44c3.63-.86,6.93-1.3,9.9-1.3,8.08,0,12.13,2.99,12.13,8.97v18.24h-3.99l-2.44-2.44c-2.37,1.62-4.98,2.44-7.83,2.44-6.65,0-9.98-2.82-9.98-8.47h0ZM403.81,87.1c-3.3,0-4.95,1.12-4.95,3.37,0,2.42,1.38,3.63,4.15,3.63,2.28,0,4.4-.71,6.35-2.12v-4.35c-1.73-.35-3.58-.52-5.55-.52h0Z"/>
          <path class="cls-2" d="M429.57,61.96v5.44h-6.87v-5.44h6.87ZM429.57,71.81v27.21h-6.87v-27.21s6.87,0,6.87,0Z"/>
        </g>
      </g>
    </g>
  </g>
</svg>